HIERARCHY
ROOT Hips
{
 OFFSET 0.000000 0.000000 0.000000
 CHANNELS 6 Xposition Yposition Zposition Yrotation Xrotation Zrotation
 JOINT Chest
 {
  OFFSET 0.000000 103.927959 -11.547555
  CHANNELS 3 Yrotation Xrotation Zrotation
  JOINT Chest2
  {
   OFFSET 0.000000 116.259650 0.000000
   CHANNELS 3 Yrotation Xrotation Zrotation
   JOINT Chest3
   {
    OFFSET 0.000000 106.135078 0.000000
    CHANNELS 3 Yrotation Xrotation Zrotation
    JOINT Chest4
    {
     OFFSET 0.000000 106.016608 0.000000
     CHANNELS 3 Yrotation Xrotation Zrotation
     JOINT Neck
     {
      OFFSET 0.000000 148.478086 0.000000
      CHANNELS 3 Yrotation Xrotation Zrotation
      JOINT Head
      {
       OFFSET 0.000000 98.684725 0.000000
       CHANNELS 3 Yrotation Xrotation Zrotation
       End Site
       {
        OFFSET 0.000000 183.657339 0.000000
       }
      }
     }
     JOINT RightCollar
     {
      OFFSET -32.301251 83.229558 0.000000
      CHANNELS 3 Yrotation Xrotation Zrotation
      JOINT RightShoulder
      {
       OFFSET -148.983121 0.000000 0.000000
       CHANNELS 3 Yrotation Xrotation Zrotation
       JOINT RightElbow
       {
        OFFSET 0.000000 -318.416921 0.000000
        CHANNELS 3 Yrotation Xrotation Zrotation
        JOINT RightWrist
        {
         OFFSET 0.000000 -260.384535 0.000000
         CHANNELS 3 Yrotation Xrotation Zrotation
         End Site
         {
          OFFSET 0.000000 -194.729091 0.000000
         }
        }
       }
      }
     }
     JOINT LeftCollar
     {
      OFFSET 32.301251 83.229558 0.000000
      CHANNELS 3 Yrotation Xrotation Zrotation
      JOINT LeftShoulder
      {
       OFFSET 148.983121 0.000000 0.000000
       CHANNELS 3 Yrotation Xrotation Zrotation
       JOINT LeftElbow
       {
        OFFSET 0.000000 -318.416921 0.000000
        CHANNELS 3 Yrotation Xrotation Zrotation
        JOINT LeftWrist
        {
         OFFSET 0.000000 -260.384535 0.000000
         CHANNELS 3 Yrotation Xrotation Zrotation
         End Site
         {
          OFFSET 0.000000 -194.729091 0.000000
         }
        }
       }
      }
     }
    }
   }
  }
 }
 JOINT RightHip
 {
  OFFSET -85.448433 0.000000 0.000000
  CHANNELS 3 Yrotation Xrotation Zrotation
  JOINT RightKnee
  {
   OFFSET 0.000000 -444.902608 0.000000
   CHANNELS 3 Yrotation Xrotation Zrotation
   JOINT RightAnkle
   {
    OFFSET 0.000000 -434.916856 0.000000
    CHANNELS 3 Yrotation Xrotation Zrotation
    JOINT RightToe
    {
     OFFSET 0.000000 -65.483541 148.093546
     CHANNELS 3 Yrotation Xrotation Zrotation
     End Site
     {
      OFFSET 0.000000 -15.533754 66.277348
     }
    }
   }
  }
 }
 JOINT LeftHip
 {
  OFFSET 85.448433 0.000000 0.000000
  CHANNELS 3 Yrotation Xrotation Zrotation
  JOINT LeftKnee
  {
   OFFSET 0.000000 -444.902608 0.000000
   CHANNELS 3 Yrotation Xrotation Zrotation
   JOINT LeftAnkle
   {
    OFFSET 0.000000 -434.916856 0.000000
    CHANNELS 3 Yrotation Xrotation Zrotation
    JOINT LeftToe
    {
     OFFSET 0.000000 -65.483541 148.093546
     CHANNELS 3 Yrotation Xrotation Zrotation
     End Site
     {
      OFFSET 0.000000 -15.533754 66.277348
     }
    }
   }
  }
 }
}
MOTION
Frames: 7
Frame Time: 0.016667
-3847.737255 954.309705 3538.086927 177.295003 8.147666 -5.109099 1.097137 1.068734 2.768683 0.356025 -5.343469 1.233258 0.354359 0.476853 1.269399 0.362048 6.194254 0.957362 -4.400222 14.346221 0.618719 -8.509828 -9.214929 2.857857 0.271186 2.235127 9.246805 8.085229 -4.663376 -24.481623 14.176190 -27.934815 12.819895 -1.213892 -14.112109 -19.601694 -1.194707 -0.615781 -9.479043 -7.888302 3.170292 29.976987 -26.908912 -29.751424 -6.929638 -5.756576 -19.498462 24.803697 -6.160017 -13.297562 -0.806698 0.207187 19.591574 0.151778 18.602752 -7.921362 15.353367 -0.437136 -1.872550 -13.372925 3.304368 -8.527137 7.906627 1.331922 17.893343 1.233069 9.527078 -11.711799 -8.233701 -0.038385 -5.071091 0.866807
-3847.852057 954.252625 3538.303244 177.315883 8.182244 -5.126904 1.109905 1.076067 2.772121 0.361497 -5.340122 1.234737 0.359810 0.480195 1.271434 0.366283 6.196771 0.958895 -4.397314 14.321943 0.618822 -8.505950 -9.260118 2.858814 0.298119 2.207518 9.265058 8.109226 -4.636066 -24.489845 14.213134 -27.878882 12.808833 -1.213315 -14.077104 -19.535497 -1.201566 -0.639871 -9.476281 -7.871970 3.181308 29.986879 -26.905656 -29.693347 -6.922365 -5.752229 -19.492989 24.782892 -6.201602 -13.333098 -0.781126 0.207268 19.586816 0.149325 18.586056 -7.940451 15.344401 -0.442560 -1.831969 -13.353765 3.297818 -8.593980 7.908011 1.329887 17.920128 1.242952 9.523224 -11.728365 -8.196999 -0.036974 -5.052155 0.838073
-3847.954284 954.190321 3538.537253 177.337836 8.216945 -5.145190 1.122699 1.089193 2.774858 0.366981 -5.334203 1.235883 0.365274 0.486111 1.273137 0.370498 6.201218 0.960180 -4.393349 14.290687 0.622444 -8.501884 -9.318035 2.866513 0.325906 2.177752 9.282199 8.126966 -4.612173 -24.499406 14.252023 -27.841570 12.795751 -1.209589 -14.047734 -19.477607 -1.214077 -0.668251 -9.475822 -7.841939 3.184087 30.006640 -26.898076 -29.646995 -6.924743 -5.742438 -19.488756 24.754671 -6.236444 -13.371726 -0.753018 0.203377 19.586089 0.142614 18.571903 -7.957034 15.328500 -0.444999 -1.804968 -13.327972 3.286506 -8.662064 7.909523 1.315186 17.950193 1.251311 9.537880 -11.756785 -8.165129 -0.035566 -5.022055 0.810997
-3848.043628 954.117758 3538.793511 177.360282 8.246599 -5.163126 1.136453 1.111803 2.776102 0.372909 -5.324068 1.236325 0.371183 0.496242 1.274181 0.374988 6.208828 0.960970 -4.388061 14.249756 0.631000 -8.497856 -9.393585 2.883718 0.354200 2.144914 9.297195 8.133292 -4.591733 -24.508903 14.291951 -27.833777 12.780453 -1.200931 -14.029121 -19.438938 -1.233746 -0.703757 -9.478212 -7.787797 3.172099 30.038821 -26.882442 -29.619242 -6.945759 -5.722071 -19.482982 24.708847 -6.253599 -13.412569 -0.722153 0.185731 19.596591 0.125531 18.560581 -7.969734 15.297748 -0.441391 -1.805705 -13.286783 3.267348 -8.723223 7.909712 1.281585 17.980006 1.256563 9.584193 -11.804569 -8.136463 -0.034000 -4.971673 0.783143
-3848.120397 954.039972 3539.067461 177.383801 8.276377 -5.181542 1.150238 1.140208 2.776661 0.378851 -5.311360 1.236440 0.377108 0.508947 1.274898 0.379460 6.218368 0.961515 -4.381730 14.201837 0.643044 -8.493680 -9.481883 2.907627 0.383348 2.109919 9.311045 8.133358 -4.574714 -24.519748 14.333942 -27.844593 12.762912 -1.189201 -14.016088 -19.408600 -1.259082 -0.743542 -9.482867 -7.719960 3.151777 30.080774 -26.862555 -29.603167 -6.976434 -5.696286 -19.478362 24.655597 -6.264015 -13.456534 -0.688791 0.164108 19.611120 0.104181 18.551806 -7.979927 15.260054 -0.434846 -1.820044 -13.238940 3.243423 -8.785616 7.910056 1.235305 18.013121 1.260231 9.649006 -11.864212 -8.112649 -0.032456 -4.910126 0.756962
-3848.175843 953.964241 3539.364182 177.413712 8.317277 -5.203172 1.161452 1.169380 2.778637 0.383577 -5.298321 1.237188 0.381823 0.521982 1.276127 0.383063 6.228154 0.962447 -4.372700 14.149349 0.656149 -8.485150 -9.578746 2.932855 0.411994 2.075667 9.324244 8.128867 -4.566471 -24.532605 14.367308 -27.857633 12.750026 -1.189776 -14.001341 -19.364867 -1.291032 -0.781707 -9.490268 -7.659965 3.130328 30.129932 -26.839371 -29.583337 -7.004913 -5.671690 -19.479400 24.607588 -6.285919 -13.513134 -0.651547 0.153141 19.628073 0.091343 18.536144 -7.983787 15.229718 -0.428031 -1.839785 -13.201630 3.221757 -8.871633 7.914090 1.172153 18.064234 1.264521 9.716459 -11.922779 -8.101960 -0.031373 -4.855701 0.739930
-3848.206397 953.899800 3539.688198 177.453350 8.375494 -5.229793 1.168569 1.196269 2.783432 0.386360 -5.286311 1.239213 0.384602 0.533990 1.278434 0.385297 6.237164 0.964193 -4.361212 14.091373 0.671091 -8.473086 -9.685805 2.961027 0.440205 2.044493 9.336486 8.116030 -4.571447 -24.547574 14.386548 -27.868895 12.745431 -1.210467 -13.985195 -19.294835 -1.332175 -0.814087 -9.503186 -7.609516 3.107894 30.189354 -26.812668 -29.559558 -7.027934 -5.651926 -19.491109 24.573413 -6.327222 -13.587635 -0.610173 0.163950 19.645307 0.096347 18.504582 -7.973318 15.215271 -0.420746 -1.869846 -13.184951 3.210329 -8.991715 7.923299 1.081800 18.136902 1.270397 9.781104 -11.974939 -8.115426 -0.031200 -4.814613 0.742143
